<svg width="108" height="60" viewBox="0 0 108 60" fill="none" xmlns="http://www.w3.org/2000/svg">
<g clip-path="url(#clip0_916_3691)">
<path d="M0 30V60H15.0194C28.9935 60 33.9097 59.7375 35.8065 58.9125C36.2323 58.6875 37.2774 58.35 38.129 58.125C42.1548 56.9625 46.9161 53.5125 49.4323 49.95C51.4452 47.1 53.5742 41.8875 54.2323 38.25C54.8903 34.6125 54.8903 25.35 54.2323 21.75C53.7677 19.1625 52.2968 14.7375 51.2903 12.9375C48.3871 7.575 43.8968 3.9 37.6645 1.725C33.329 0.187498 30.8129 -2.38419e-06 15.0194 -2.38419e-06H0V30ZM34.2194 15.4875C38.1677 17.2875 41.1871 20.3625 42.7742 24.075C43.7419 26.3625 43.9355 27.3 43.9355 30C43.9355 34.3875 42.5419 37.7625 39.3677 40.95C31.8194 48.45 19.7419 47.5125 13.6258 38.925C11.729 36.2625 11.071 33.975 11.071 30C11.071 23.4 14.0516 18.6375 19.9355 15.75C23.071 14.2125 24.8129 13.875 28.3742 14.025C30.8129 14.1375 31.8968 14.4375 34.2194 15.4875Z" fill="white"/>
<path d="M70.2581 18.6375C66.9678 19.5 64.5291 21.2625 62.671 24.075C61.3936 25.9875 61.3549 26.1375 61.3549 30.0375C61.3549 34.0125 61.3549 34.0125 62.8258 36.15C64.5678 38.7 67.6258 40.725 70.6452 41.3625C76.4129 42.525 82.9161 38.7 84.4258 33.225C85.0452 30.975 84.6581 26.7375 83.6516 24.825C82.5678 22.7625 80.3226 20.6625 78.0774 19.575C76.2968 18.7125 71.9226 18.1875 70.2581 18.6375Z" fill="white"/>
<path d="M97.9355 22.125C93.871 22.875 91.3549 25.875 91.3549 30C91.3549 34.8 94.6839 37.95 99.7161 37.95C102.736 37.9875 104.942 36.8625 106.645 34.575C107.69 33.075 107.806 32.6625 107.806 30C107.806 27.3375 107.69 26.925 106.645 25.425C104.71 22.8 101.265 21.4875 97.9355 22.125Z" fill="white"/>
</g>
<defs>
<clipPath id="clip0_916_3691">
<rect width="108" height="60" fill="white"/>
</clipPath>
</defs>
</svg>
